<?xml version="1.0" encoding="utf-8"?>
<!-- Generator: Adobe Illustrator 27.5.0, SVG Export Plug-In . SVG Version: 6.00 Build 0)  -->
<svg version="1.1" id="Layer_1" xmlns="http://www.w3.org/2000/svg" xmlns:xlink="http://www.w3.org/1999/xlink" x="0px" y="0px"
	 viewBox="0 0 792 149.41" style="enable-background:new 0 0 792 149.41;" xml:space="preserve">
<style type="text/css">
	.st0{fill:#2BACE2;}
	.st1{font-family:'Narnoor-Regular';}
	.st2{font-size:100px;}
	.st3{fill:#010101;}
	.st4{fill:#FFDC7C;}
	.st5{fill:#36B4C1;}
	.st6{fill:#ECC35F;}
	.st7{fill:#299BAE;}
	.st8{fill:#FFE5AB;}
	.st9{fill:none;stroke:#141F38;stroke-width:4;stroke-linecap:round;stroke-linejoin:round;stroke-miterlimit:10;}
</style>
<text transform="matrix(1 0 0 1 321.8054 109.5536)" class="st0 st1 st2">  SPACES</text>
<text transform="matrix(1 0 0 1 51.3556 110.7531)" class="st3 st1 st2">KUBE</text>
<g>
	<g>
		<circle class="st4" cx="361.1" cy="37.2" r="3"/>
	</g>
	<g>
		<circle class="st5" cx="379.1" cy="42.2" r="8"/>
	</g>
	<g>
		<path class="st4" d="M374.89,71.08c-0.72-2.69-1.74-5.22-3.02-7.56c-7.53-13.95-23.92-21.42-39.89-17.11
			c-18.66,5.03-29.71,24.25-24.67,42.91c1.15,4.27,3.05,8.15,5.51,11.52c8.29,11.36,23.01,17.04,37.4,13.15
			c14.39-3.88,24.26-16.2,25.7-30.19C376.35,79.65,376.04,75.35,374.89,71.08z"/>
	</g>
	<g>
		<path class="st6" d="M374.89,71.08c-0.72-2.69-1.74-5.22-3.02-7.56c-2.55-4.72-6.11-8.69-10.33-11.72
			c0.85,1.18,1.63,2.43,2.33,3.72c1.28,2.34,2.3,4.87,3.02,7.56c1.15,4.27,1.46,8.57,1.03,12.72c-1.44,13.99-11.31,26.31-25.7,30.19
			c-10.58,2.86-21.33,0.53-29.58-5.41c0.06,0.09,0.12,0.17,0.18,0.26c8.29,11.36,23.01,17.04,37.4,13.15
			c14.39-3.88,24.26-16.2,25.7-30.19C376.35,79.65,376.04,75.35,374.89,71.08z"/>
	</g>
	<g>
		<path class="st7" d="M381.67,34.63c0.27,0.81,0.43,1.67,0.43,2.57c0,4.42-3.58,8-8,8c-0.9,0-1.76-0.16-2.57-0.43
			c1.07,3.16,4.05,5.43,7.57,5.43c4.42,0,8-3.58,8-8C387.1,38.68,384.83,35.7,381.67,34.63z"/>
	</g>
	<g>
		<path class="st8" d="M319.82,106.84c-2.46-3.37-4.36-7.25-5.51-11.52c-5.04-18.66,6.01-37.88,24.67-42.91
			c9.99-2.7,20.15-0.78,28.2,4.45c-8.53-9.53-22.01-14.01-35.2-10.45c-18.66,5.03-29.71,24.25-24.67,42.91
			c1.15,4.27,3.05,8.15,5.51,11.52c2.54,3.48,5.68,6.41,9.23,8.71C321.27,108.69,320.52,107.79,319.82,106.84z"/>
	</g>
	<g>
		<path class="st9" d="M371.87,63.52c1.28,2.34,2.3,4.87,3.02,7.56c1.15,4.27,1.46,8.57,1.03,12.72
			c-1.44,13.99-11.31,26.31-25.7,30.19c-14.39,3.89-29.11-1.79-37.4-13.15c-2.46-3.37-4.36-7.25-5.51-11.52
			c-5.04-18.66,6.01-37.88,24.67-42.91C347.95,42.1,364.34,49.57,371.87,63.52z"/>
	</g>
	<g>
		<path class="st9" d="M371.88,63.52c2.87,0.24,5.4,0.68,7.51,1.34c3.64,1.14,6,2.91,6.64,5.29c1.07,3.97-2.86,8.89-10.11,13.65
			c-7.33,4.83-18.05,9.48-30.39,12.81c-12.34,3.33-23.95,4.7-32.71,4.23c-8.65-0.47-14.54-2.75-15.61-6.72
			c-0.61-2.25,0.38-4.79,2.66-7.44"/>
	</g>
	<g>
		<circle class="st9" cx="379.1" cy="42.2" r="8"/>
	</g>
	<g>
		<circle class="st9" cx="361.1" cy="37.2" r="3"/>
	</g>
	<g>
		<path class="st9" d="M314.17,78.28c0.1-1.45,0.32-2.87,0.65-4.27"/>
	</g>
	<g>
		<path class="st9" d="M317.53,67.05c3.43-6.13,9.22-10.93,16.54-12.9"/>
	</g>
</g>
</svg>
